<svg xmlns="http://www.w3.org/2000/svg" viewBox="0 0 900 1900" preserveAspectRatio="xMidYMid meet" role="img" aria-labelledby="title desc" style="font-family: 'Segoe UI', Tahoma, Geneva, Verdana, sans-serif; width: 100%; height: auto;">
  <!-- Опис та заголовок для доступності -->
  <title id="title">Інтерактивний Профільний Екран</title>
  <desc id="desc">Цей SVG представляє інтерактивний профільний екран з анімованим фоном, аватаром, статистикою, графіками та посиланнями на соціальні мережі.</desc>
  
  <!-- Стилі з використанням CSS-перемінних -->
  <style>
    :root {
      --gold-color: #FFD700;
      --dark-gray: #3a3a3a;
      --light-gray: #1e1e1e;
      --grid-color: #444444;
      --white-color: #FFFFFF;
      --green-color: #4CAF50;
      --red-color: #F44336;
      --purple-color: #6A5ACD;
      --orange-color: #FF4500;
      --turquoise-color: #00CED1;
      --discord-color: #7289DA;
      --twitter-color: #1DA1F2;
      --youtube-color: #FF0000;
      --shadow-color: rgba(0, 0, 0, 0.5);
      --semi-transparent-white: rgba(255, 255, 255, 0.2);
      --semi-transparent-black: rgba(0, 0, 0, 0.3);
      --accent-color: #1E90FF; /* Доданий синій акцент */
    }

    /* Загальні стилі */
    text {
      filter: drop-shadow(2px 2px 4px var(--shadow-color));
    }

    /* Заголовок */
    .title {
      fill: var(--gold-color);
      font-size: 48px; /* Збільшений розмір */
      font-weight: bold;
      text-anchor: middle;
      opacity: 0;
      animation: fadeIn 2s forwards;
      font-family: 'Segoe UI', Tahoma, Geneva, Verdana, sans-serif; /* Сучасний шрифт */
    }

    /* Розділовий заголовок */
    .section-title {
      fill: var(--gold-color);
      font-size: 32px; /* Збільшений розмір */
      font-weight: bold;
      text-anchor: start;
      opacity: 0;
      animation: fadeIn 2s forwards;
      animation-delay: 1s;
      font-family: 'Segoe UI', Tahoma, Geneva, Verdana, sans-serif;
      position: relative;
    }

    /* Декоративна лінія під заголовком */
    .section-title::after {
      content: '';
      display: block;
      width: 100px;
      height: 4px;
      background-color: var(--accent-color);
      margin-top: 4px;
    }

    /* Статистичний текст */
    .stat-text {
      fill: var(--white-color);
      font-size: 22px; /* Збільшений розмір */
      opacity: 0;
      animation: fadeIn 2s forwards;
      animation-delay: 2s;
      font-family: 'Segoe UI', Tahoma, Geneva, Verdana, sans-serif;
    }

    /* Виділення тексту */
    .highlight {
      fill: var(--gold-color);
      font-weight: bold;
    }

    /* Стовпці графіку */
    .graph-bar {
      transition: fill 0.3s;
      cursor: pointer;
    }
    .graph-bar:hover {
      fill: var(--accent-color);
    }

    /* Соціальні іконки */
    .social-icon {
      cursor: pointer;
      transition: transform 0.3s, fill 0.3s;
      opacity: 0;
      animation: fadeIn 1s forwards;
      animation-delay: 3s;
    }
    .social-icon:hover {
      transform: scale(1.2);
      fill: var(--accent-color);
    }

    /* Аватар */
    .avatar-square {
      fill: var(--dark-gray);
      stroke: var(--gold-color);
      stroke-width: 2;
      cursor: pointer;
      opacity: 0;
      animation: fadeIn 2s forwards;
      animation-delay: 1.5s;
      transition: stroke-width 0.3s, fill 0.3s;
      rx: 15; /* Округлення кутів */
      ry: 15;
    }
    .avatar-square:hover {
      stroke-width: 4;
      fill: rgba(58, 58, 58, 0.8); /* Легкий фон при наведенні */
    }

    /* Сітка графіків */
    .grid line {
      stroke: var(--grid-color);
      stroke-opacity: 0.3;
      stroke-width: 1;
    }
    .grid text {
      fill: var(--white-color);
      font-size: 14px; /* Збільшений розмір */
      font-family: 'Segoe UI', Tahoma, Geneva, Verdana, sans-serif;
    }

    /* Плашки для блоків */
    .block-background {
      fill: var(--semi-transparent-black);
      rx: 15;
      ry: 15;
      opacity: 0;
      animation: fadeIn 2s forwards;
      animation-delay: 1s;
    }

    /* Легенда */
    .legend-text {
      fill: var(--white-color);
      font-size: 18px; /* Збільшений розмір */
      text-anchor: start;
      font-family: 'Segoe UI', Tahoma, Geneva, Verdana, sans-serif;
    }

    /* Анімації */
    @keyframes fadeIn {
      to {
        opacity: 1;
      }
    }

    /* Роздільники між графіками */
    .separator {
      stroke: var(--light-gray);
      stroke-width: 2;
      opacity: 0.5;
    }
  </style>
  
  <!-- Визначення градієнта та фільтрів -->
  <defs>
    <!-- Градієнтний фон з додаванням текстури -->
    <radialGradient id="bgGradient" cx="1" cy="1" r="1.5" fx="1" fy="1" gradientUnits="objectBoundingBox">
      <stop offset="0%" stop-color="var(--purple-color)">
        <animate attributeName="stop-color" 
                 values="#2b004b;var(--light-gray);#2b004b" 
                 dur="5s" 
                 repeatCount="indefinite" />
      </stop>
      <stop offset="50%" stop-color="var(--light-gray)">
        <animate attributeName="stop-color" 
                 values="var(--light-gray);#2b004b;var(--light-gray)" 
                 dur="5s" 
                 repeatCount="indefinite" />
      </stop>
      <stop offset="100%" stop-color="var(--light-gray)" />
      <!-- Анімація пульсації градієнта -->
      <animateTransform 
          attributeName="gradientTransform" 
          type="scale" 
          from="1 1" 
          to="1.5 1.5" 
          dur="5s" 
          repeatCount="indefinite" />
    </radialGradient>

    <!-- Фільтр тіні -->
    <filter id="shadow" x="-20%" y="-20%" width="140%" height="140%">
      <feDropShadow dx="0" dy="4" stdDeviation="4" flood-color="var(--shadow-color)" />
    </filter>

    <!-- Іконки соціальних мереж з покращеним дизайном -->
    <symbol id="discord" viewBox="0 0 24 24">
      <path d="M20.317 4.369a19.794 19.794 0 00-4.887-1.412.1.1 0 00-.09.042C14.628 3.042 12 5.006 12 5.006s-2.627-1.964-2.34-2.001a.1.1 0 00-.09-.042A19.705 19.705 0 003.683 4.37C2.818 5.422 2 7.161 2 9.255c0 4.464 2.824 8.217 6.872 9.546a.999.999 0 00.172.018c.19 0 .376-.014.56-.04a15.3 15.3 0 01-2.76-3.66c.233-.016.46-.024.687-.024a9.283 9.283 0 006.873-2.887 9.283 9.283 0 006.873 2.887c.227 0 .454.008.687.024a15.3 15.3 0 01-2.76 3.66c.184.026.37.04.56.04a.999.999 0 00.172-.018c4.048-1.329 6.872-5.082 6.872-9.546 0-2.094-.818-3.833-1.683-4.886zM8.5 15.27c-1.323 0-2.4-1.077-2.4-2.4s1.077-2.4 2.4-2.4 2.4 1.077 2.4 2.4-1.077 2.4-2.4 2.4zm7 0c-1.323 0-2.4-1.077-2.4-2.4s1.077-2.4 2.4-2.4 2.4 1.077 2.4 2.4-1.077 2.4-2.4 2.4z" fill="currentColor"/>
    </symbol>
    <symbol id="twitter" viewBox="0 0 24 24">
      <path d="M23.954 4.569a10 10 0 01-2.825.775 4.932 4.932 0 002.163-2.723 9.864 9.864 0 01-3.127 1.195 4.916 4.916 0 00-8.384 4.482A13.94 13.94 0 011.671 3.149a4.916 4.916 0 001.523 6.574A4.897 4.897 0 01.964 9.1v.061a4.916 4.916 0 003.946 4.814 4.902 4.902 0 01-2.212.084 4.918 4.918 0 004.588 3.417A9.867 9.867 0=" fill="currentColor"/>
    </symbol> 
  </defs>
</svg>
