<svg xmlns="http://www.w3.org/2000/svg" viewBox="0 0 100 1000" width="100px" height="1000px" preserveAspectRatio="xMidYMid meet" role="img" aria-labelledby="title desc">
  <!-- Опис та заголовок для доступності -->
  <title id="title">Інтерактивний Профільний Екран</title>
  <desc id="desc">Цей SVG представляє інтерактивний профільний екран з анімованим фоном, аватаром, статистикою, прогрес-баром та посиланнями на соціальні мережі.</desc>

  <!-- Стилі з використанням CSS-перемінних -->
  <style>
    :root {
      --gold-color: #FFD700;
      --dark-gray: #1A1A1A;
      --light-gray: #3A3A3A;
      --grid-color: #444444;
      --white-color: #FFFFFF;
      --green-color: #4CAF50;
      --red-color: #F44336;
      --purple-color: #6A5ACD;
      --orange-color: #FF4500;
      --turquoise-color: #00CED1;
      --discord-color: #7289DA;
      --twitter-color: #1DA1F2;
      --youtube-color: #FF0000;
      --shadow-color: rgba(0, 0, 0, 0.5);
      --semi-transparent-white: rgba(255, 255, 255, 0.2);
      --semi-transparent-black: rgba(0, 0, 0, 0.3);
      --accent-color: #1E90FF; /* Доданий синій акцент */
    }

    /* Загальні стилі */
    text {
      filter: drop-shadow(1px 1px 2px var(--shadow-color));
      font-family: 'Segoe UI', Tahoma, Geneva, Verdana, sans-serif;
    }

    /* Заголовок */
    .title {
      fill: var(--gold-color);
      font-size: 8px; /* Зменшений розмір для 0x10 формату */
      font-weight: bold;
      text-anchor: middle;
      opacity: 0;
      animation: fadeIn 2s forwards;
    }

    /* Розділовий заголовок */
    .section-title {
      fill: var(--gold-color);
      font-size: 6px; /* Зменшений розмір */
      font-weight: bold;
      text-anchor: start;
      opacity: 0;
      animation: fadeIn 2s forwards;
      animation-delay: 0.5s;
    }

    /* Декоративна лінія під заголовком */
    .decorative-line {
      fill: none;
      stroke: var(--accent-color);
      stroke-width: 1;
      opacity: 0;
      animation: fadeIn 2s forwards;
      animation-delay: 0.7s;
    }

    /* Статистичний текст */
    .stat-text {
      fill: var(--white-color);
      font-size: 4px; /* Зменшений розмір */
      opacity: 0;
      animation: fadeIn 2s forwards;
      animation-delay: 1s;
    }

    /* Виділення тексту */
    .highlight {
      fill: var(--gold-color);
      font-weight: bold;
    }

    /* Прогрес-бар */
    .progress-bar-bg {
      fill: var(--semi-transparent-black);
      rx: 5;
      ry: 5;
    }
    .progress-bar-fill {
      fill: var(--green-color);
      rx: 5;
      ry: 5;
      animation: growBar 2s forwards;
      animation-delay: 1.5s;
    }

    /* Соціальні іконки */
    .social-icon {
      cursor: pointer;
      transition: transform 0.3s, fill 0.3s;
      opacity: 0;
      animation: fadeIn 1s forwards;
      animation-delay: 2s;
    }
    .social-icon:hover {
      transform: scale(1.2);
      fill: var(--accent-color);
    }

    /* Аватар */
    .avatar-square {
      fill: var(--dark-gray);
      stroke: var(--gold-color);
      stroke-width: 0.5;
      cursor: pointer;
      opacity: 0;
      animation: fadeIn 2s forwards;
      animation-delay: 1s;
      transition: stroke-width 0.3s, fill 0.3s;
      rx: 3; /* Округлення кутів */
      ry: 3;
    }
    .avatar-square:hover {
      stroke-width: 1;
      fill: rgba(58, 58, 58, 0.8); /* Легкий фон при наведенні */
    }

    /* Анімації */
    @keyframes fadeIn {
      from { opacity: 0; }
      to { opacity: 1; }
    }

    @keyframes growBar {
      from { width: 0; }
      to { width: 50; } /* 62% від 80px ширини */
    }
  </style>

  <!-- Визначення фільтрів -->
  <defs>
    <!-- Фільтр тіні -->
    <filter id="shadow" x="-20%" y="-20%" width="140%" height="140%">
      <feDropShadow dx="0" dy="1" stdDeviation="1" flood-color="var(--shadow-color)" />
    </filter>

    <!-- Іконки соціальних мереж -->
    <symbol id="discord" viewBox="0 0 24 24">
      <path d="M20.317 4.369a19.794 19.794 0 00-4.887-1.412.1.1 0 00-.09.042C14.628 3.042 12 5.006 12 5.006s-2.627-1.964-2.34-2.001a.1.1 0 00-.09-.042A19.705 19.705 0 003.683 4.37C2.818 5.422 2 7.161 2 9.255c0 4.464 2.824 8.217 6.872 9.546a.999.999 0 00.172.018c.19 0 .376-.014.56-.04a15.3 15.3 0 01-2.76-3.66c.233-.016.46-.024.687-.024a9.283 9.283 0 006.873-2.887 9.283 9.283 0 006.873 2.887c.227 0 .454.008.687.024a15.3 15.3 0 01-2.76 3.66c.184.026.37.04.56.04a.999.999 0 00.172-.018c4.048-1.329 6.872-5.082 6.872-9.546 0-2.094-.818-3.833-1.683-4.886zM8.5 15.27c-1.323 0-2.4-1.077-2.4-2.4s1.077-2.4 2.4-2.4 2.4 1.077 2.4 2.4-1.077 2.4-2.4 2.4zm7 0c-1.323 0-2.4-1.077-2.4-2.4s1.077-2.4 2.4-2.4 2.4 1.077 2.4 2.4-1.077 2.4-2.4 2.4z" fill="currentColor"/>
    </symbol>
    <symbol id="twitter" viewBox="0 0 24 24">
      <path d="M23.954 4.569a10 10 0 01-2.825.775 4.932 4.932 0 002.163-2.723 9.864 9.864 0 01-3.127 1.195 4.916 4.916 0 00-8.384 4.482A13.94 13.94 0 011.671 3.149a4.916 4.916 0 001.523 6.574A4.897 4.897 0 01.964 9.1v.061a4.916 4.916 0 003.946 4.814 4.902 4.902 0 01-2.212.084 4.918 4.918 0 004.588 3.417A9.867 9.867 0 010 19.54a13.94 13.94 0 007.548 2.209c9.057 0 14.01-7.514 14.01-14.01 0-.213-.005-.425-.014-.636A10.025 10.025 0 0024 4.59z" fill="currentColor"/>
    </symbol>
    <symbol id="youtube" viewBox="0 0 24 24">
      <path d="M19.615 3.184a2.99 2.99 0 00-2.105-2.105C15.688.667 12 0 12 0s-3.688.667-5.51 1.079a2.99 2.99 0 00-2.105 2.105C4 4.006 4 6 4 6s0 1.994.385 2.816a2.99 2.99 0 002.105 2.105C8.312 11.333 12 12 12 12s3.688-.667 5.51-1.079a2.99 2.99 0 002.105-2.105C20 7.994 20 6 20 6s0-1.994-.385-2.816zM9.545 15.568V8.432L15.818 12l-6.273 3.568z" fill="currentColor"/>
    </symbol>
  </defs>

  <!-- Фон -->
  <rect width="100" height="1000" fill="#1A1A1A" />

  <!-- Заголовок -->
  <g id="header" filter="url(#shadow)">
    <text x="50" y="20" class="title">Ваш Профіль</text>
  </g>

  <!-- Блок Фото -->
  <g id="photoBlock" transform="translate(25, 30)" filter="url(#shadow)">
    <!-- Плашка фону блоку -->
    <rect x="0" y="0" width="50" height="50" class="avatar-square"></rect>
    <!-- Текст всередині квадрата -->
    <text x="25" y="30" text-anchor="middle" font-size="4" fill="#FFFFFF" pointer-events="none">Фото</text>
  </g>

  <!-- Статистика -->
  <g id="statistics" transform="translate(10, 90)" filter="url(#shadow)">
    <text x="0" y="0" class="section-title">Статистика:</text>
    <text x="0" y="10" class="stat-text">Рівень: <tspan class="highlight">100</tspan></text>
    <text x="0" y="15" class="stat-text">Рейтинг: <tspan class="highlight">ТОП 1</tspan></text>
  </g>

  <!-- Прогрес-бар -->
  <g id="progress" transform="translate(10, 120)" filter="url(#shadow)">
    <text x="0" y="0" class="section-title">Прогрес:</text>
    <rect x="0" y="5" width="80" height="10" class="progress-bar-bg" />
    <rect x="0" y="5" width="0" height="10" class="progress-bar-fill"></rect>
    <text x="40" y="14" text-anchor="middle" font-size="4" fill="#FFFFFF">62%</text>
  </g>

  <!-- Соціальні мережі -->
  <g id="social" transform="translate(10, 150)" filter="url(#shadow)">
    <text x="0" y="0" class="section-title">Соціальні мережі:</text>
    <!-- Іконки -->
    <circle cx="5" cy="10" r="3" fill="#7289DA" class="social-icon">
      <title>Discord</title>
    </circle>
    <circle cx="15" cy="10" r="3" fill="#1DA1F2" class="social-icon">
      <title>Twitter</title>
    </circle>
    <circle cx="25" cy="10" r="3" fill="#FF0000" class="social-icon">
      <title>YouTube</title>
    </circle>
  </g>

  <!-- Фільтр тіні для додаткових елементів -->
  <defs>
    <filter id="shadow" x="-20%" y="-20%" width="140%" height="140%">
      <feDropShadow dx="0" dy="1" stdDeviation="0.5" flood-color="rgba(0, 0, 0, 0.5)" />
    </filter>
  </defs>

  <!-- Додаткові Елементи -->
  
  <!-- 1. Живий графік пінгу -->
  <g id="livePingChart" transform="translate(10, 180)" filter="url(#shadow)">
    <text x="25" y="0" class="section-title" text-anchor="middle">Живий пінг</text>
    <!-- Лінія пінгу -->
    <polyline points="0,10 10,15 20,10 30,20 40,15 50,10" fill="none" stroke="#1E90FF" stroke-width="0.5">
      <animate attributeName="points" dur="2s" repeatCount="indefinite"
               values="0,10 10,15 20,10 30,20 40,15 50,10;
                       0,10 10,12 20,14 30,18 40,12 50,10;
                       0,10 10,15 20,10 30,20 40,15 50,10" />
    </polyline>
    <!-- Поточне значення пінгу -->
    <text x="25" y="25" class="stat-text" text-anchor="middle">120ms</text>
  </g>

  <!-- 2. Теплова карта активності -->
  <g id="heatMap" transform="translate(10, 220)" filter="url(#shadow)">
    <text x="20" y="0" class="section-title" text-anchor="middle">Активність</text>
    <!-- Клітинки теплової карти (7 днів) -->
    <g transform="translate(0, 5)">
      <rect class="heatmap-cell" x="0" y="0" width="10" height="10" fill="rgba(0,0,0,0.3)">
        <animate attributeName="fill" dur="1s" fill="freeze"
                 values="rgba(0,0,0,0.3);#4CAF50;rgba(0,0,0,0.3)" />
      </rect>
      <rect class="heatmap-cell" x="12" y="0" width="10" height="10" fill="rgba(0,0,0,0.3)">
        <animate attributeName="fill" dur="1s" fill="freeze"
                 values="rgba(0,0,0,0.3);#FF4500;rgba(0,0,0,0.3)" />
      </rect>
      <rect class="heatmap-cell" x="24" y="0" width="10" height="10" fill="rgba(0,0,0,0.3)">
        <animate attributeName="fill" dur="1s" fill="freeze"
                 values="rgba(0,0,0,0.3);#00CED1;rgba(0,0,0,0.3)" />
      </rect>
      <rect class="heatmap-cell" x="36" y="0" width="10" height="10" fill="rgba(0,0,0,0.3)">
        <animate attributeName="fill" dur="1s" fill="freeze"
                 values="rgba(0,0,0,0.3);#6A5ACD;rgba(0,0,0,0.3)" />
      </rect>
      <rect class="heatmap-cell" x="48" y="0" width="10" height="10" fill="rgba(0,0,0,0.3)">
        <animate attributeName="fill" dur="1s" fill="freeze"
                 values="rgba(0,0,0,0.3);#F44336;rgba(0,0,0,0.3)" />
      </rect>
      <rect class="heatmap-cell" x="60" y="0" width="10" height="10" fill="rgba(0,0,0,0.3)">
        <animate attributeName="fill" dur="1s" fill="freeze"
                 values="rgba(0,0,0,0.3);#4CAF50;rgba(0,0,0,0.3)" />
      </rect>
      <rect class="heatmap-cell" x="72" y="0" width="10" height="10" fill="rgba(0,0,0,0.3)">
        <animate attributeName="fill" dur="1s" fill="freeze"
                 values="rgba(0,0,0,0.3);#FF4500;rgba(0,0,0,0.3)" />
      </rect>
    </g>
  </g>

  <!-- 3. Таймер зворотнього відліку -->
  <g id="countdownTimer" transform="translate(10, 250)" filter="url(#shadow)">
    <text x="25" y="0" class="section-title" text-anchor="middle">Зворотній відлік</text>
    <!-- Таймер -->
    <text x="25" y="15" class="stat-text" text-anchor="middle" id="countdown">3:25:10</text>
    <!-- Анімація змін кольору -->
    <animate attributeName="fill" from="#FFFFFF" to="#FF0000" dur="3h25m10s" fill="freeze" />
  </g>

  <!-- 4. Анімований статус сервера -->
  <g id="serverStatus" transform="translate(10, 270)" filter="url(#shadow)">
    <text x="0" y="0" class="section-title">Статус сервера</text>
    <!-- Індикатор статусу -->
    <g transform="translate(0, 5)">
      <circle cx="5" cy="5" r="3" class="server-status-circle online">
        <animate attributeName="fill" dur="6s" repeatCount="indefinite"
                 values="#4CAF50;#FF9800;#F44336;#4CAF50" />
      </circle>
      <text x="10" y="8" font-size="4" fill="#FFFFFF">Online</text>
    </g>
  </g>

  <!-- 5. Радіальний графік нагород -->
  <g id="radialAchievements" transform="translate(10, 300)" filter="url(#shadow)">
    <text x="25" y="0" class="section-title" text-anchor="middle">Нагороди</text>
    <!-- Радіальний графік -->
    <circle cx="25" cy="15" r="10" fill="none" stroke="#3A3A3A" stroke-width="1"/>
    <path d="M25,5 A10,10 0 1,1 35,15 L25,15 Z" fill="#FFD700">
      <animate attributeName="d" dur="2s" repeatCount="indefinite"
               values="M25,5 A10,10 0 0,1 25,5 L25,15 Z;
                       M25,5 A10,10 0 1,1 35,15 L25,15 Z;
                       M25,5 A10,10 0 0,1 25,5 L25,15 Z" />
    </path>
    <!-- Відсоток у центрі -->
    <text x="25" y="18" text-anchor="middle" fill="#FFFFFF" font-size="4">75%</text>
  </g>

  <!-- 6. Інтерактивна лінійна діаграма -->
  <g id="interactiveLineChart" transform="translate(10, 330)" filter="url(#shadow)">
    <text x="25" y="0" class="section-title" text-anchor="middle">Рейтинг за місяць</text>
    <!-- Лінія графіка -->
    <polyline points="5,15 15,13 25,11 35,9 45,7" fill="none" stroke="#1E90FF" stroke-width="0.5">
      <animate attributeName="points" dur="4s" repeatCount="indefinite"
               values="5,15 15,15 25,15 35,15 45,15;
                       5,15 15,13 25,11 35,9 45,7;
                       5,15 15,15 25,15 35,15 45,15" />
    </polyline>
    <!-- Точки даних з підказками -->
    <circle cx="5" cy="15" r="1.5" fill="#FFD700">
      <title>День 1: 100 очок</title>
    </circle>
    <circle cx="15" cy="13" r="1.5" fill="#FFD700">
      <title>День 5: 90 очок</title>
    </circle>
    <circle cx="25" cy="11" r="1.5" fill="#FFD700">
      <title>День 10: 80 очок</title>
    </circle>
    <circle cx="35" cy="9" r="1.5" fill="#FFD700">
      <title>День 15: 70 очок</title>
    </circle>
    <circle cx="45" cy="7" r="1.5" fill="#FFD700">
      <title>День 20: 60 очок</title>
    </circle>
  </g>

  <!-- Додаткові Елементи: Живий графік пінгу, Теплова карта, Прогрес-бар, Радіальний графік нагород, Анімований статус сервера, Інтерактивна лінійна діаграма, Соціальні мережі, Динамічний фон, Таймер зворотнього відліку -->
  <!-- Ці елементи вже включені вище в структурі панелі -->

</svg>